<svg width="30" height="30" viewBox="0 0 30 30" fill="none" xmlns="http://www.w3.org/2000/svg">
<path d="M23.7387 2.5H11.2625C9.87373 2.5 8.74998 3.62375 8.74998 5.0125V12.0588L2.87248 17.8612C2.69637 18.0354 2.57598 18.258 2.52658 18.5007C2.47718 18.7434 2.501 18.9953 2.59502 19.2245C2.68903 19.4536 2.84901 19.6497 3.05464 19.7878C3.26027 19.9258 3.50229 19.9997 3.74998 20V26.25C3.74998 26.5815 3.88167 26.8995 4.11609 27.1339C4.35051 27.3683 4.66846 27.5 4.99998 27.5H25C25.3315 27.5 25.6494 27.3683 25.8839 27.1339C26.1183 26.8995 26.25 26.5815 26.25 26.25V5.01125C26.25 3.62375 25.1275 2.5 23.7387 2.5ZM13.6525 18.8888V25H6.24998V18.04L9.98373 14.3538L13.6525 18.1075V18.8888ZM16.25 11.25H13.75V8.75H16.25V11.25ZM21.25 21.25H18.75V18.75H21.25V21.25ZM21.25 16.25H18.75V13.75H21.25V16.25ZM21.25 11.25H18.75V8.75H21.25V11.25Z" fill="#0062D5"/>
<path d="M8.75 18.75H11.25V21.25H8.75V18.75Z" fill="#0062D5"/>
</svg>
