<svg width="16" height="16" viewBox="0 0 16 16" fill="none" xmlns="http://www.w3.org/2000/svg">
<path d="M7.99997 0.888672C6.59352 0.888672 5.21866 1.30573 4.04925 2.08711C2.87983 2.86849 1.96838 3.97909 1.43016 5.27848C0.891936 6.57786 0.751112 8.00767 1.0255 9.38709C1.29988 10.7665 1.97715 12.0336 2.97165 13.0281C3.96616 14.0226 5.23324 14.6999 6.61266 14.9743C7.99208 15.2486 9.42189 15.1078 10.7213 14.5696C12.0207 14.0314 13.1313 13.1199 13.9126 11.9505C14.694 10.7811 15.1111 9.40623 15.1111 7.99978C15.1111 6.1138 14.3619 4.30506 13.0283 2.97147C11.6947 1.63788 9.88595 0.888672 7.99997 0.888672V0.888672ZM7.99997 14.222C6.76933 14.222 5.56633 13.8571 4.54309 13.1734C3.51985 12.4897 2.72233 11.5179 2.25139 10.3809C1.78044 9.24396 1.65722 7.99288 1.89731 6.78589C2.13739 5.57889 2.73 4.4702 3.60019 3.60001C4.47039 2.72981 5.57908 2.1372 6.78607 1.89712C7.99307 1.65703 9.24415 1.78025 10.3811 2.2512C11.5181 2.72214 12.4899 3.51966 13.1736 4.5429C13.8573 5.56614 14.2222 6.76914 14.2222 7.99978C14.2222 9.65002 13.5666 11.2327 12.3997 12.3996C11.2329 13.5665 9.6502 14.222 7.99997 14.222Z" fill="black"/>
<path d="M12.4444 5.37778C12.3612 5.295 12.2485 5.24854 12.1311 5.24854C12.0137 5.24854 11.9011 5.295 11.8178 5.37778L6.88445 10.2889L4.21778 7.62222C4.13645 7.5344 4.02356 7.4825 3.90396 7.47791C3.78435 7.47333 3.66782 7.51644 3.58001 7.59778C3.49219 7.67911 3.44028 7.792 3.4357 7.9116C3.43111 8.03121 3.47423 8.14774 3.55556 8.23556L6.88445 11.5556L12.4444 6.00889C12.4861 5.96757 12.5192 5.91841 12.5417 5.86425C12.5643 5.8101 12.5759 5.752 12.5759 5.69333C12.5759 5.63466 12.5643 5.57657 12.5417 5.52241C12.5192 5.46825 12.4861 5.41909 12.4444 5.37778Z" fill="black"/>
</svg>
