<svg width="16" height="16" viewBox="0 0 16 16" fill="none" xmlns="http://www.w3.org/2000/svg">
<path fill-rule="evenodd" clip-rule="evenodd" d="M8.6 0.999863C10.2 1.09986 11.7 1.89986 12.8 2.99986C14.1 4.39986 14.8 6.09986 14.8 8.09986C14.8 9.69986 14.2 11.1999 13.2 12.4999C12.2 13.6999 10.8 14.5999 9.2 14.8999C7.6 15.1999 6 14.9999 4.6 14.1999C3.2 13.3999 2.1 12.1999 1.5 10.6999C0.899997 9.19986 0.799997 7.49986 1.3 5.99986C1.8 4.39986 2.7 3.09986 4.1 2.19986C5.4 1.29986 7 0.899863 8.6 0.999863ZM9.1 13.8999C10.4 13.5999 11.6 12.8999 12.5 11.7999C13.3 10.6999 13.8 9.39986 13.7 7.99986C13.7 6.39986 13.1 4.79986 12 3.69986C11 2.69986 9.8 2.09986 8.4 1.99986C7.1 1.89986 5.7 2.19986 4.6 2.99986C3.5 3.79986 2.7 4.89986 2.3 6.29986C1.9 7.59986 1.9 8.99986 2.5 10.2999C3.1 11.5999 4 12.5999 5.2 13.2999C6.4 13.9999 7.8 14.1999 9.1 13.8999V13.8999ZM7.9 7.49986L10.3 4.99986L11 5.69986L8.6 8.19986L11 10.6999L10.3 11.3999L7.9 8.89986L5.5 11.3999L4.8 10.6999L7.2 8.19986L4.8 5.69986L5.5 4.99986L7.9 7.49986V7.49986Z" fill="black"/>
</svg>
