<svg width="17" height="16" viewBox="0 0 17 16" fill="none" xmlns="http://www.w3.org/2000/svg">
<g clip-path="url(#clip0)">
<path fill-rule="evenodd" clip-rule="evenodd" d="M16.945 9.73801L15.506 9.31201C15.513 9.17901 15.523 9.04801 15.523 8.91601C15.523 5.38601 13.104 2.32301 9.77101 1.63501L9.51001 2.99601C12.219 3.55701 14.185 6.04501 14.185 8.91601V8.92201L12.883 8.53701C12.7539 8.61479 12.6596 8.73936 12.62 8.88482C12.5803 9.03028 12.5982 9.18543 12.67 9.31801L13.852 11.525C14.002 11.801 14.338 11.9 14.606 11.748L16.733 10.519C16.862 10.4411 16.956 10.3164 16.9955 10.171C17.035 10.0255 17.0169 9.87047 16.945 9.73801Z" fill="white"/>
<path fill-rule="evenodd" clip-rule="evenodd" d="M2.43801 8.62601C2.43801 6.27301 3.76401 4.17201 5.73801 3.18601L6.35001 4.84401C6.42216 4.87664 6.50014 4.89439 6.57931 4.89619C6.65847 4.89799 6.73719 4.88381 6.81075 4.8545C6.88431 4.82519 6.9512 4.78134 7.00743 4.72559C7.06366 4.66984 7.10807 4.60332 7.13801 4.53001L8.20901 2.04001C8.27373 1.89079 8.27823 1.72232 8.22157 1.56985C8.16491 1.41739 8.05147 1.29274 7.90501 1.22201L5.50501 0.112009C5.43296 0.0790622 5.35499 0.0610399 5.2758 0.0590273C5.1966 0.0570148 5.11782 0.0710538 5.04419 0.100298C4.97057 0.129543 4.90362 0.173389 4.84739 0.229193C4.79116 0.284998 4.74681 0.351607 4.71701 0.425009L5.25801 1.89001C2.77801 3.08301 1.10001 5.69501 1.10001 8.62701C1.10001 9.45101 1.23501 10.273 1.50401 11.07L2.76601 10.613C2.54991 9.97278 2.43914 9.30172 2.43801 8.62601Z" fill="white"/>
<path fill-rule="evenodd" clip-rule="evenodd" d="M8.713 14.607C7.667 14.607 6.648 14.344 5.758 13.796L6.885 12.608C6.88569 12.529 6.8705 12.4506 6.84034 12.3776C6.81018 12.3046 6.76566 12.2383 6.70942 12.1828C6.65318 12.1274 6.58637 12.0837 6.51295 12.0545C6.43953 12.0254 6.36099 12.0112 6.282 12.013H3.656C3.57594 12.0148 3.49702 12.0324 3.4238 12.0649C3.35059 12.0973 3.28451 12.1439 3.22939 12.202C3.17427 12.2601 3.13119 12.3285 3.10263 12.4034C3.07407 12.4782 3.06061 12.5579 3.063 12.638L3.081 15.366C3.07994 15.446 3.09477 15.5255 3.12463 15.5999C3.15448 15.6742 3.19877 15.7418 3.25494 15.7989C3.3111 15.856 3.37803 15.9014 3.45185 15.9325C3.52567 15.9636 3.60491 15.9797 3.685 15.98L4.801 14.804C5.95544 15.5855 7.31893 16.0002 8.713 15.994C10.726 15.994 12.659 15.099 14.018 13.54L13.026 12.609C11.92 13.879 10.348 14.607 8.713 14.607Z" fill="white"/>
</g>
<defs>
<clipPath id="clip0">
<rect width="17" height="16" fill="white"/>
</clipPath>
</defs>
</svg>
