<svg width="32" height="32" viewBox="0 0 32 32" fill="none" xmlns="http://www.w3.org/2000/svg">
<path d="M29.7567 7.03998H2.25334C1.36886 7.03998 0.64502 7.84446 0.64502 8.63998C0.64502 9.4355 1.36886 10.2393 2.25334 10.2393H2.64182V13.4393H29.4073V10.2393H29.7567C30.6418 10.2393 31.365 9.4355 31.365 8.63998C31.365 7.84446 30.6418 7.03998 29.7567 7.03998ZM16.005 11.8528C15.5609 11.8528 15.2012 11.4822 15.2012 11.0259C15.2012 10.5696 15.5609 10.199 16.005 10.199C16.4498 10.199 16.8089 10.5696 16.8089 11.0259C16.8089 11.4822 16.4498 11.8528 16.005 11.8528ZM2.64182 19.8387H29.4073V14.72H2.64182V19.8387ZM16.005 16.3993C16.4498 16.3993 16.8089 16.7693 16.8089 17.2256C16.8089 17.6825 16.4498 18.0525 16.005 18.0525C15.5609 18.0525 15.2012 17.6825 15.2012 17.2256C15.2005 16.7693 15.5609 16.3993 16.005 16.3993ZM2.64182 24.2528V27.9737C2.64182 28.4281 2.69878 28.8006 3.14102 28.8006H6.35638C6.79862 28.8006 6.99894 28.4281 6.99894 27.9737V25.5993H25.0501V27.9737C25.0501 28.4281 25.2114 28.8006 25.653 28.8006H28.869C29.31 28.8006 29.4066 28.4281 29.4066 27.9737V21.12H2.64182V24.2528ZM16.005 22.5997C16.4498 22.5997 16.8089 22.9702 16.8089 23.4259C16.8089 23.8835 16.4498 24.2521 16.005 24.2521C15.5609 24.2521 15.2012 23.8835 15.2012 23.4259C15.2005 22.9709 15.5609 22.5997 16.005 22.5997Z" fill="#E4AE45"/>
</svg>
