<svg width="25" height="25" viewBox="0 0 25 25" fill="none" xmlns="http://www.w3.org/2000/svg">
<path d="M5.20841 5.20835H7.29175V7.29169H5.20841V5.20835ZM1.04175 1.04169H11.4584V11.4584H1.04175V1.04169ZM3.12508 3.12502V9.37502H9.37508V3.12502H3.12508ZM5.20841 17.7084H7.29175V19.7917H5.20841V17.7084ZM1.04175 13.5417H11.4584V23.9584H1.04175V13.5417ZM3.12508 15.625V21.875H9.37508V15.625H3.12508ZM13.5417 13.5417H17.7084V15.625H19.7917V13.5417H23.9584V15.625H19.7917V17.7084H23.9584V23.9584H19.7917V21.875H15.6251V23.9584H13.5417V21.875H15.6251V19.7917H13.5417V13.5417ZM21.8751 21.875V19.7917H19.7917V21.875H21.8751ZM19.7917 17.7084H17.7084V15.625H15.6251V19.7917H19.7917V17.7084ZM23.6459 3.4896L22.6042 4.53127L20.4688 2.44794L21.5105 1.40627C21.7188 1.18752 22.073 1.1771 22.3126 1.40627L23.6459 2.68752C23.8647 2.89585 23.8751 3.25002 23.6459 3.4896ZM13.5417 9.31252L19.8647 3.00002L22.0001 5.13544L15.6876 11.4584H13.5417V9.31252Z" fill="white"/>
</svg>
