<svg width="17" height="16" viewBox="0 0 17 16" fill="none" xmlns="http://www.w3.org/2000/svg">
<path d="M0 7.11111H1.88889V8.88889H0V7.11111ZM7.55556 1.77778H9.44444V5.33333H7.55556V1.77778ZM5.66667 7.11111H9.44444V10.6667H7.55556V8.88889H5.66667V7.11111ZM11.3333 7.11111H13.2222V8.88889H15.1111V7.11111H17V8.88889H15.1111V10.6667H17V14.2222H15.1111V16H13.2222V14.2222H9.44444V16H7.55556V12.4444H11.3333V10.6667H13.2222V8.88889H11.3333V7.11111ZM15.1111 14.2222V10.6667H13.2222V14.2222H15.1111ZM11.3333 0H17V5.33333H11.3333V0ZM13.2222 1.77778V3.55556H15.1111V1.77778H13.2222ZM0 0H5.66667V5.33333H0V0ZM1.88889 1.77778V3.55556H3.77778V1.77778H1.88889ZM0 10.6667H5.66667V16H0V10.6667ZM1.88889 12.4444V14.2222H3.77778V12.4444H1.88889Z" fill="#FFFEFE"/>
</svg>
