<svg width="12" height="16" viewBox="0 0 12 16" fill="none" xmlns="http://www.w3.org/2000/svg">
<path d="M6.15537 0C5.7323 0 5.37012 0.150641 5.06883 0.451923C4.76755 0.753205 4.61691 1.11538 4.61691 1.53846C4.61691 1.96154 4.76755 2.32372 5.06883 2.625C5.37012 2.92628 5.7323 3.07692 6.15537 3.07692C6.57845 3.07692 6.94063 2.92628 7.24191 2.625C7.54319 2.32372 7.69383 1.96154 7.69383 1.53846C7.69383 1.11538 7.54319 0.753205 7.24191 0.451923C6.94063 0.150641 6.57845 0 6.15537 0ZM2.64576 15.5385L4.27076 12.875C4.45024 12.5801 4.58486 12.2853 4.6746 11.9904L5.2323 10.1442L6.91499 11.9038L8.38614 15.4327C8.45665 15.6058 8.56723 15.7436 8.71787 15.8462C8.86851 15.9487 9.03999 16 9.2323 16C9.48871 16 9.70665 15.9103 9.88614 15.7308C10.0656 15.5513 10.1554 15.3333 10.1554 15.0769C10.1554 14.9679 10.1329 14.8526 10.0881 14.7308L8.74191 11.4135C8.65858 11.2019 8.59287 11.0593 8.5448 10.9856C8.49672 10.9119 8.38935 10.7853 8.22268 10.6058L6.32845 8.56731L6.90537 5.85577L7.44383 6.90385C7.5464 7.1218 7.68742 7.27885 7.86691 7.375C7.90537 7.39423 8.56883 7.73077 9.8573 8.38462C10.165 8.53846 10.3669 8.61539 10.4631 8.61539C10.6426 8.61539 10.79 8.55769 10.9054 8.44231C11.0208 8.32692 11.0784 8.17949 11.0784 8C11.0784 7.73718 10.9567 7.54167 10.7131 7.41346L8.51114 6.24039L7.64576 4.25962C7.4855 3.90705 7.27396 3.71474 7.01114 3.68269L4.80922 3.43269C4.60409 3.41346 4.32845 3.47436 3.9823 3.61538L1.65537 4.53846C1.52717 4.58974 1.40217 4.67628 1.28037 4.79808C1.15858 4.91987 1.07845 5.04487 1.03999 5.17308C0.533577 6.48077 0.200244 7.35256 0.0399874 7.78846C0.0143464 7.84615 0.00152588 7.91667 0.00152588 8C0.00152588 8.16667 0.0624233 8.3109 0.184218 8.43269C0.306013 8.55449 0.450244 8.61539 0.616911 8.61539C0.745116 8.61539 0.874923 8.58494 1.00633 8.52404C1.13774 8.46314 1.22268 8.38462 1.26114 8.28846L2.24191 5.71154L4.26114 4.95192L2.84768 11.5577L1.03999 14.6346C0.963064 14.7821 0.924603 14.9295 0.924603 15.0769C0.924603 15.3333 1.01435 15.5513 1.19383 15.7308C1.37332 15.9103 1.59127 16 1.84768 16C2.19383 16 2.45986 15.8462 2.64576 15.5385Z" fill="white"/>
</svg>
