<svg width="14" height="14" viewBox="0 0 14 14" fill="none" xmlns="http://www.w3.org/2000/svg">
<path d="M2 2.66667C1.26667 2.66667 0.666667 3.26667 0.666667 4C0.666667 4.73333 1.26667 5.33333 2 5.33333C2.73333 5.33333 3.33333 4.74 3.33333 4C3.33333 3.26 2.74 2.66667 2 2.66667ZM6.66667 1.33333C6.40296 1.33333 6.14517 1.41153 5.92591 1.55804C5.70664 1.70455 5.53574 1.91279 5.43483 2.15642C5.33391 2.40006 5.30751 2.66815 5.35895 2.92679C5.4104 3.18543 5.53739 3.42301 5.72386 3.60948C5.91033 3.79595 6.14791 3.92293 6.40655 3.97438C6.66519 4.02583 6.93328 3.99942 7.17691 3.89851C7.42055 3.79759 7.62878 3.62669 7.77529 3.40743C7.9218 3.18816 8 2.93038 8 2.66667C8 1.92667 7.40667 1.33333 6.66667 1.33333ZM11.3333 0C10.6 0 10 0.6 10 1.33333C10 2.06667 10.6 2.66667 11.3333 2.66667C12.0667 2.66667 12.6667 2.07333 12.6667 1.33333C12.6667 0.593333 12.0733 0 11.3333 0ZM1 6C0.446667 6 0 6.44667 0 7V10H0.666667V13.3333H3.33333V10H4V7C4 6.44667 3.55333 6 3 6H1ZM5.66667 4.66667C5.11333 4.66667 4.66667 5.11333 4.66667 5.66667V8.66667H5.33333V12H8V8.66667H8.66667V5.66667C8.66667 5.11333 8.22 4.66667 7.66667 4.66667H5.66667ZM10.3333 3.33333C9.78 3.33333 9.33333 3.78 9.33333 4.33333V7.33333H10V10.6667H12.6667V7.33333H13.3333V4.33333C13.3333 3.78 12.8867 3.33333 12.3333 3.33333H10.3333Z" fill="white"/>
</svg>
