<svg width="12" height="16" viewBox="0 0 12 16" fill="none" xmlns="http://www.w3.org/2000/svg">
<g clip-path="url(#clip0)">
<path d="M6.15539 0C5.73231 0 5.37013 0.150641 5.06885 0.451923C4.76757 0.753205 4.61693 1.11538 4.61693 1.53846C4.61693 1.96154 4.76757 2.32372 5.06885 2.625C5.37013 2.92628 5.73231 3.07692 6.15539 3.07692C6.57846 3.07692 6.94064 2.92628 7.24193 2.625C7.54321 2.32372 7.69385 1.96154 7.69385 1.53846C7.69385 1.11538 7.54321 0.753205 7.24193 0.451923C6.94064 0.150641 6.57846 0 6.15539 0ZM2.64577 15.5385L4.27077 12.875C4.45026 12.5801 4.58487 12.2853 4.67462 11.9904L5.23231 10.1442L6.915 11.9038L8.38616 15.4327C8.45667 15.6058 8.56725 15.7436 8.71789 15.8462C8.86853 15.9487 9.04 16 9.23231 16C9.48872 16 9.70667 15.9103 9.88616 15.7308C10.0656 15.5513 10.1554 15.3333 10.1554 15.0769C10.1554 14.9679 10.133 14.8526 10.0881 14.7308L8.74193 11.4135C8.65859 11.2019 8.59289 11.0593 8.54481 10.9856C8.49673 10.9119 8.38936 10.7853 8.2227 10.6058L6.32846 8.56731L6.90539 5.85577L7.44385 6.90385C7.54641 7.1218 7.68744 7.27885 7.86693 7.375C7.90539 7.39423 8.56885 7.73077 9.85731 8.38462C10.165 8.53846 10.3669 8.61539 10.4631 8.61539C10.6426 8.61539 10.79 8.55769 10.9054 8.44231C11.0208 8.32692 11.0785 8.17949 11.0785 8C11.0785 7.73718 10.9567 7.54167 10.7131 7.41346L8.51116 6.24039L7.64577 4.25962C7.48552 3.90705 7.27398 3.71474 7.01116 3.68269L4.80923 3.43269C4.60411 3.41346 4.32846 3.47436 3.98231 3.61538L1.65539 4.53846C1.52718 4.58974 1.40218 4.67628 1.28039 4.79808C1.15859 4.91987 1.07846 5.04487 1.04 5.17308C0.533592 6.48077 0.200259 7.35256 0.0400027 7.78846C0.0143617 7.84615 0.00154114 7.91667 0.00154114 8C0.00154114 8.16667 0.0624386 8.3109 0.184233 8.43269C0.306028 8.55449 0.450259 8.61539 0.616926 8.61539C0.745131 8.61539 0.874939 8.58494 1.00635 8.52404C1.13776 8.46314 1.22269 8.38462 1.26116 8.28846L2.24193 5.71154L4.26116 4.95192L2.8477 11.5577L1.04 14.6346C0.96308 14.7821 0.924618 14.9295 0.924618 15.0769C0.924618 15.3333 1.01436 15.5513 1.19385 15.7308C1.37334 15.9103 1.59128 16 1.8477 16C2.19385 16 2.45987 15.8462 2.64577 15.5385Z" fill="white"/>
</g>
<defs>
<clipPath id="clip0">
<rect width="11.08" height="16" fill="white"/>
</clipPath>
</defs>
</svg>
